<?xml version="1.0" encoding="iso-8859-1"?>
<!DOCTYPE svg PUBLIC "-//W3C//DTD SVG 1.1//EN" "http://www.w3.org/Graphics/SVG/1.1/DTD/svg11.dtd">
<svg 
 version="1.1" xmlns="http://www.w3.org/2000/svg" xmlns:xlink="http://www.w3.org/1999/xlink" x="0px" y="0px" width="512px"
	 height="512px" viewBox="0 0 512 512" enable-background="new 0 0 512 512" xml:space="preserve"
><g id="3e91140ac1bfb9903b91c1b0ca0258da"><g></g><path display="inline" d="M505.991,233.303L401.024,54.856c-7.345-12.483-25.203-22.698-39.687-22.698H150.663
		c-14.484,0-32.342,10.215-39.687,22.698L6.009,233.303c-7.345,12.482-7.345,32.912,0,45.396l104.967,178.446
		c7.345,12.482,25.203,22.697,39.687,22.697h210.675c14.483,0,32.342-10.215,39.687-22.697l104.967-178.446
		C513.336,266.215,513.336,245.785,505.991,233.303z M256,361.338c-58.175,0-105.337-47.166-105.337-105.338
		c0-58.175,47.163-105.337,105.337-105.337c58.178,0,105.338,47.162,105.338,105.337C361.338,314.172,314.178,361.338,256,361.338z"></path></g></svg>